<svg id="Capa_1" data-name="Capa 1" xmlns="http://www.w3.org/2000/svg" viewBox="0 0 95.98 36.39"><path d="M7151.46,7175.69h96v36.39h-96Zm89,6.63h-82.58v23.15h82.58Z" transform="translate(-7151.46 -7175.69)"/><path d="M7234.32,7196.76l3.06,2.9L7234,7203c-.72-.76-1.5-1.55-2.23-2.38a1,1,0,0,0-1.35-.3,8.45,8.45,0,1,1,4.27-11A8.43,8.43,0,0,1,7234.32,7196.76Zm-7.48-.22a4,4,0,0,0,.45-7.92,4,4,0,1,0-.45,7.92Z" transform="translate(-7151.46 -7175.69)"/><path d="M7162.56,7201.33v-14.88h4.37v14.88Z" transform="translate(-7151.46 -7175.69)"/></svg>