<svg id="Capa_1" data-name="Capa 1" xmlns="http://www.w3.org/2000/svg" viewBox="0 0 511.49 500.49"><path d="M.56,1.11c11.22,0,22.44-.19,33.66.08,2.27.06,4.8,1.43,6.7,2.87,7.59,5.76,14.93,11.86,22.46,17.7,5.5,4.25,7.67,10,9,16.61q8.3,41.72,17,83.36Q102,182.78,114.9,243.8c3.95,18.72,8.06,37.41,12.1,56.12.14.62.36,1.23.63,2.13q10.5-1.07,21-2.13,35.13-3.66,70.27-7.33c21.57-2.28,43.12-4.67,64.69-6.95q44.94-4.74,89.89-9.4c21.49-2.25,43-4.55,64.46-6.75,1.92-.19,2.62-.89,3-2.75,2-9.13,4.23-18.23,6.4-27.33q13-54.57,26.09-109.14C476.1,119.13,479,108,481.7,96.89c.2-.8.32-1.61.55-2.75H130.57V71H512.05c-1.73,7.44-3.43,14.73-5.13,22-2,8.57-4,17.16-6,25.72q-13,54.46-26,108.9c-4.84,20.15-9.84,40.26-14.62,60.42-.57,2.41-1.92,2.73-3.88,2.93q-44.26,4.57-88.52,9.21-35.13,3.69-70.24,7.47-39.4,4.19-78.8,8.34-42.19,4.39-84.39,8.71c-.62.07-1.24.23-2.15.4.23,1.11.39,2.08.64,3q3.76,14.4,7.57,28.78c.77,2.91,1.62,5.8,2.5,8.67,1.52,5,5.79,8.06,11.36,8.13,6.49.07,13,0,19.48,0l245.4,0H438V397h-3.3l-122.15,0q-79,0-158,0c-17.59,0-31.68-11.36-35.07-28.24-1-4.9-1.59-9.88-2.64-14.76Q104.56,297.45,92.24,241,78.8,179.11,65.37,117.21,56.9,78.27,48.27,39.37a8,8,0,0,0-3.05-4.63C39.72,31.16,34,28,28.31,24.62A2.73,2.73,0,0,0,27,24.33q-13.21.06-26.42.16Z" transform="translate(-0.56 -1.04)"/><path d="M332,454.75c.09-25.56,21.38-46.38,47.48-46.21,27.56.17,47.15,23.07,47.13,46.45,0,24.24-20.55,46.66-47.64,46.5C354.53,501.35,331.79,481.8,332,454.75Zm47.28,23.44c11.43.31,23.72-10,23.77-23,0-13.42-12.25-23.39-23.79-23.33-13.2.07-23.46,10.1-23.53,23.08S365.93,478.16,379.27,478.19Z" transform="translate(-0.56 -1.04)"/><path d="M224.92,455c.55,24.57-21.43,46.6-47.19,46.58-24.79,0-47.48-20.18-47.38-46.71.11-26,22.08-46.2,47.22-46.31C203.7,408.39,225.37,430.54,224.92,455Zm-47.18,23.24c13,0,23.59-10.4,23.62-23.09s-10.69-23.26-23.78-23.24S154.1,442,154.08,455,164.43,478.23,177.74,478.19Z" transform="translate(-0.56 -1.04)"/></svg>