<svg id="Capa_1" data-name="Capa 1" xmlns="http://www.w3.org/2000/svg" viewBox="0 0 512 512"><defs><style>.cls-1{fill:#e23487;}</style></defs><path class="cls-1" d="M268,0c8.87,2.14,18.17,3.24,26.51,6.68,12.21,5,23.73,11.74,37.06,18.51,2.26-2.46,6.24-6,9.22-10.19,6-8.45,13.25-9.66,21-2.71,12.77,11.49,18.65,26,18.36,44.07,2.64-1.92,4.77-3.35,6.76-4.93,7-5.53,14.24-4.39,19.19,3.06,19.25,29,4.89,69.48-28.52,80.39-1.71.56-3.45,1.06-5.54,1.7,0,3.69-.19,7.34.11,11a5,5,0,0,0,2.4,3.15c11.93,6.63,17.55,16.8,17.49,30.32-.05,9.83.1,19.66,0,29.49-.18,13.55-6.21,23.61-18.48,29.59-2.45,1.2-3.44,2.56-3.32,5.31.23,4.82.05,9.66.06,14.49a59.09,59.09,0,0,1-13.69,38.25c-6.29,7.77-12.79,15.38-18.86,23.31a13.81,13.81,0,0,0-2.63,7.58c-.28,11.49-.13,23-.12,34.49C335,372,337.15,374,345.74,374c17.33,0,34.66-.09,52,0,58.27.36,106,42.79,113.45,100.63A23.77,23.77,0,0,0,512,478v25l-9,9H9l-9-9V478c2-8.72,3.34-17.67,6.13-26.13,15.09-45.8,58.39-77.28,106.64-77.81,18.16-.21,36.32,0,54.48-.07,7.44,0,9.8-2.39,9.81-9.88,0-11.83.15-23.66-.11-35.48a12.87,12.87,0,0,0-2.56-7.1c-5.66-7.4-11.6-14.61-17.61-21.74-10.33-12.23-15.53-26.21-15-42.26a41.7,41.7,0,0,1,0-5c1-7-.73-11.56-7.8-15.32-9.37-5-13.65-14.39-13.92-25.05-.28-11.32-.33-22.67,0-34,.37-11.9,6.07-21,16.4-26.83,2.7-1.53,3.58-3.06,3.6-6.12.08-14.15-.35-28.37.92-42.42C145.5,53.34,184.91,10.87,233.78,2,237.2,1.38,240.59.67,244,0ZM487.88,487.82c0-2,.07-3.5,0-5-2.53-46.38-41.74-84.16-88.17-84.77-18.83-.25-37.66,0-56.49-.09S311.08,384.52,311,365.84c-.09-14.49-.27-29,.16-43.48A20.3,20.3,0,0,1,315,311.5c7.36-9.87,15.33-19.3,23.06-28.9a35.42,35.42,0,0,0,8.08-23.08q-.09-13.24,0-26.49c.07-8.79,4.18-13.13,12.95-13.86,6.05-.5,8.74-3.15,8.81-9.18q.18-14.75,0-29.49c-.06-5.78-2.6-8.49-8.28-9.35-8.15-1.24-11.61-5.14-11.67-13.39-.06-10,0-20,0-30,0-9.56,3.79-13.47,13.48-14.21,1.66-.13,3.32-.27,5-.53,15.83-2.56,27.76-20.06,23.52-33.67-7.17,1.44-14.22,3.46-21.39,4.18C354.73,84.9,349,76.86,354,64c3.24-8.44,3-16.69-1-24.37-6,3.5-11.43,7-17.12,10-7.33,3.92-13.59,2.56-20-3.13-16.4-14.63-36-22-57.92-22.38A91.88,91.88,0,0,0,164,113.89c0,.52,0,1,0,1.54-.16,14,0,28,0,42,0,8.52-3.47,12.43-11.9,13.74-5.45.85-8,3.55-8.06,9q-.15,15,0,30c.05,5.82,2.67,8.52,8.38,9,9.18.83,13.12,5,13.23,14.11.1,8,.24,16,0,24-.36,10.72,3.14,19.81,10.09,27.91,7.16,8.33,13.88,17.05,21,25.46a17.81,17.81,0,0,1,4.47,12.3c-.19,14,0,28-.08,42-.08,20-13.23,33-33.31,33.1-17.82.06-35.65,0-53.48,0a90.39,90.39,0,0,0-85.8,62.37,78.53,78.53,0,0,0-4.31,27.4Z"/></svg>