<svg xmlns="http://www.w3.org/2000/svg" viewBox="0 0 765.43 153.72"><defs><style>.cls-1{font-size:140px;font-family:MyriadPro-Regular, Myriad Pro;}.cls-2{letter-spacing:-0.01em;}.cls-3{letter-spacing:-0.01em;}</style></defs><g id="Encabezado"><g id="logo"><g id="anillos_Imagen" data-name="anillos Imagen"><path d="M313.86,111.86v-7.45a9.42,9.42,0,0,0,.58-1.8,56.06,56.06,0,0,1,4.78-17C330.36,61.31,348.66,44.37,373,33.94c10.71-4.58,21.92-7.16,33.74-5.26a36.53,36.53,0,0,1,15.75,5.92c2.47,1.74,4.87,3.58,7.23,5.46a40,40,0,0,1,13.85,19.47,2.42,2.42,0,0,0,2.19,1.85c7.43,1.6,14.94,2.93,22.21,5,13,3.79,24.47,10.38,33.58,20.66A22.75,22.75,0,0,1,507.25,99a48,48,0,0,1,.31,13.85c-.7,5-1,10-2.26,14.85-2.68,10.2-9.78,16.74-19.08,21.1-11.13,5.23-22.93,7.79-35.14,8.65a205.05,205.05,0,0,1-27.49-.25c-12.32-.75-24.14-3.19-35-9.35a1.93,1.93,0,0,0-1.47-.12,95.09,95.09,0,0,1-19.44,5.41c-16.15,3-29.9-1-40.73-13.73-6.06-7.12-11-14.77-12.34-24.31A33.28,33.28,0,0,0,313.86,111.86ZM444.75,70.79c2.79.54,5.56,1,8.29,1.6,11.57,2.54,22.59,6.46,32.41,13.27,4.31,3,8.05,6.5,10.41,11.29a12.86,12.86,0,0,1-1.06,13.9,28.77,28.77,0,0,1-10.85,9,77.14,77.14,0,0,1-24,7.52,141,141,0,0,1-51.3-2.05c-11.58-2.53-22.51-6.71-32.23-13.69a30.76,30.76,0,0,1-8.63-9.08c-3.92-6.57-2.68-11.9,1.09-16.63,3.29-4.13,7.71-6.83,12.47-9,10.21-4.65,21-6.77,32.12-7.47,2.83-.17,5.67-.25,8.67-.38.19-2,.38-4,.57-5.92-.46-.07-.62-.12-.77-.12-13.27,0-26.25,1.75-38.72,6.47-7.09,2.68-13.65,6.23-18.67,12.09a20,20,0,0,0-2.35,23.6,34.77,34.77,0,0,0,8.45,9.71c7.18,5.91,15.46,9.77,24.15,12.83,14.56,5.13,29.65,7,45,7.19,13.71.17,27.11-1.61,40-6.52,6.57-2.5,12.65-5.78,17.53-11,7.22-7.68,8.1-17.2,2.39-26.07A39.52,39.52,0,0,0,488,80c-10.49-6.93-22.11-11.1-34.34-13.7-3.08-.65-6.2-1.14-9.41-1.72C444.42,66.75,444.58,68.67,444.75,70.79Zm43.19,42c-4.25-5.73-9.83-9.6-16-12.71-9.2-4.62-19-7.23-29.19-9.11a68.31,68.31,0,0,1-21.38,32.29C441.78,128,474.36,122.92,487.94,112.77ZM422.53,59.25c-.31-1.54-.63-3-.92-4.57a2.07,2.07,0,0,0-1.95-1.78,54,54,0,0,0-17.89-.14c-28.11,4.18-54.38,26.09-63.51,53-2.05,6-3.43,12.13-2.4,18.57a3.09,3.09,0,0,0,2,2.62,32.77,32.77,0,0,0,17.71,2.57c2.59-.29,5.14-.92,7.86-1.42-.25-.5-.33-.7-.44-.87a34.6,34.6,0,0,1-5.74-14.46c-.87-6-1.57-12-1.86-18a19.63,19.63,0,0,1,6.48-16,71.24,71.24,0,0,1,8.5-6.93c10.74-7.14,22.92-10,35.53-11.39C411.29,59.86,416.73,59.66,422.53,59.25ZM393,117.38a15,15,0,0,1,1.62.68,2.88,2.88,0,0,0,4-.6c2.58-2.61,5.31-5.07,7.88-7.68,8-8.18,14.79-17.25,19.15-28,3.45-8.47,5.48-17.17,4.1-26.35-1.63-10.86-7.65-18-18.28-21.19A44.86,44.86,0,0,0,387,34.05c-28,7.34-48.55,24.27-62.08,49.71-4.74,8.89-7.23,18.42-6.25,28.66,1.26,13.22,10.81,23.33,23.82,24.92,9.36,1.14,18.37-.61,27.2-3.6.06,0,.09-.18.15-.32a8.38,8.38,0,0,1-.81-1c-1-1.58-2.19-1.68-3.93-1.13a49.36,49.36,0,0,1-18.52,2.24c-13.9-1-23-10.21-23.73-24.09a42,42,0,0,1,4.81-20.91c11.77-23.52,30.25-39.63,55-48.51a46.67,46.67,0,0,1,24.21-2.33c12.37,2.19,20.73,13.2,20.46,23.51a63.08,63.08,0,0,1-.59,7.4c-1.2,8.37-5.39,15.55-9.63,22.61a86.83,86.83,0,0,1-16.45,19.43C398.19,112.88,395.71,115,393,117.38Zm-20.85-15.33c.64.83,1.15,1.59,1.75,2.26,4,4.42,9,7.46,14.29,10.13a1.82,1.82,0,0,0,1.5-.35A109.36,109.36,0,0,0,412,91.26c.36-.5.68-1,1.19-1.82C398.2,90,384.62,93.66,372.18,102.05Z" transform="translate(-2.57 -15.5)"/><text x="-2.57" y="-15.5"/><text class="cls-1" transform="translate(6.3 117.18)">j<tspan class="cls-2" x="34.02" y="0">o</tspan><tspan class="cls-3" x="109.9" y="0">y</tspan><tspan x="174.44" y="0">er</tspan></text><text class="cls-1" transform="matrix(-1, 0, 0, 1, 765.43, 118.72)">unic</text></g></g></g></svg>